<svg width="66" height="66" viewBox="0 0 66 66" fill="none" xmlns="http://www.w3.org/2000/svg">
<path d="M60 1V2H62V3H63V4H64V6H65V60H64V62H63V63H62V64H60V65H6V64H4V63H3V62H2V60H1V6H2V4H3V3H4V2H6V1H60Z" fill="#D9D9D9" stroke="black" stroke-width="2"/>
<path d="M24.0761 21.0165C23.7553 22.3326 23.7409 23.6317 23.9574 24.872C24.2509 26.5488 24.993 28.1107 26.1615 29.4189C27.5426 30.9638 29.3972 31.9793 31.4056 32.3426C31.6039 32.3779 31.8034 32.4079 32.0043 32.4302C32.0108 32.4302 32.016 32.4302 32.0225 32.4315C32.1895 32.4498 32.3577 32.4615 32.5272 32.4707C32.6707 32.4798 32.8142 32.4929 32.9602 32.4929V32.4955C33.2054 32.4968 33.3215 32.5007 33.4297 32.506L33.5758 32.5086H33.6201C36.6054 32.5086 39.1134 30.9219 40.917 28.3328L41.1075 28.0218L41.8952 30.3991L46.2733 33.0039L42.4664 35.4192L43.3233 42.2258C48.154 41.937 52 37.9168 52 33.0039C52 28.4505 48.6991 24.6538 44.3692 23.8931C43.3141 23.7075 42.2251 23.7533 41.1844 24.0068C41.1753 24.0094 41.1648 24.012 41.1557 24.0133C39.3103 24.4682 37.6579 25.4719 36.3654 26.8233C36.2676 26.9435 36.1607 27.0559 36.0485 27.1631C35.3938 27.7878 34.5109 28.1734 33.5367 28.1734C33.2967 28.1734 33.0619 28.1486 32.835 28.1041C32.8194 28.1015 32.805 28.0989 32.7881 28.0963C32.702 28.0793 32.6094 28.0597 32.5077 28.0362C30.8031 27.4951 29.3098 26.4325 28.2378 24.9988L26.7327 22.9887L30.4392 24.3152L33.0372 18.2523L35.4121 24.08L42.2408 22.7783C42.1156 20.3251 41.0279 18.0039 39.1916 16.3559C37.3188 14.6738 34.9243 13.853 32.4099 14.0216C28.4438 14.2869 25.0177 17.1479 24.0761 21.0165Z" fill="black"/>
<path d="M39.8385 36.5798C38.4574 35.0349 36.6028 34.0194 34.5944 33.6561C34.3961 33.6208 34.1966 33.5907 33.9957 33.5685C33.9892 33.5685 33.984 33.5685 33.9775 33.5672C33.8106 33.5489 33.6423 33.5372 33.4728 33.528C33.3293 33.5189 33.1858 33.5058 33.0398 33.5058V33.5032C32.7946 33.5019 32.6785 33.498 32.5703 33.4927L32.4242 33.4901H32.3799C29.3946 33.4901 26.8866 35.0768 25.083 37.6658L24.8925 37.9769L24.1048 35.5995L19.7267 32.9948L23.5336 30.5795L22.6767 23.7729C17.846 24.0617 14 28.0819 14 32.9948C14 37.5482 17.3009 41.3449 21.6308 42.1056C22.6859 42.2912 23.7749 42.2454 24.8143 41.9919C24.8234 41.9893 24.8339 41.9867 24.843 41.9854C26.6884 41.5305 28.3408 40.5268 29.6332 39.1754C29.7311 39.0551 29.838 38.9427 29.9502 38.8356C30.6049 38.2109 31.4878 37.8253 32.462 37.8253C32.702 37.8253 32.9367 37.8501 33.1637 37.8946C33.1793 37.8972 33.1937 37.8998 33.2106 37.9024C33.2967 37.9194 33.3893 37.939 33.491 37.9625C35.1956 38.5036 36.6889 39.5662 37.7609 40.9999L39.266 43.01L35.5595 41.6834L32.9615 47.7464L30.5866 41.9187L23.7579 43.2204C23.8831 45.6736 24.9708 47.9948 26.8071 49.6428C28.6825 51.3262 31.0783 52.147 33.5928 51.9784C37.5588 51.7131 40.9849 48.8521 41.9265 44.9835C42.2473 43.6674 42.2617 42.3683 42.0452 41.128C41.7517 39.4512 41.0096 37.8893 39.8411 36.5811L39.8385 36.5798Z" fill="black"/>
</svg>
